<svg xmlns="http://www.w3.org/2000/svg" width="800" height="142" viewBox="0 0 800 142">
  <rect width="800" height="142" fill="#0d1117"/>
  <rect y="140" width="800" height="2" fill="#21262d"/>
  <path fill="#3fb950" d="M125,16 H134 V34 H125 Z M134,16 H143 V34 H134 Z M170,16 H179 V34 H170 Z M179,16 H188 V34 H179 Z M197,16 H206 V34 H197 Z M206,16 H215 V34 H206 Z M242,16 H251 V34 H242 Z M251,16 H260 V34 H251 Z M125,34 H134 V52 H125 Z M134,34 H143 V52 H134 Z M161,34 H170 V52 H161 Z M170,34 H179 V52 H170 Z M206,34 H215 V52 H206 Z M215,34 H224 V52 H215 Z M233,34 H242 V52 H233 Z M242,34 H251 V52 H242 Z M125,52 H134 V70 H125 Z M134,52 H143 V70 H134 Z M143,52 H152 V70 H143 Z M152,52 H161 V70 H152 Z M161,52 H170 V70 H161 Z M215,52 H224 V70 H215 Z M224,52 H233 V70 H224 Z M233,52 H242 V70 H233 Z M125,70 H134 V88 H125 Z M134,70 H143 V88 H134 Z M161,70 H170 V88 H161 Z M170,70 H179 V88 H170 Z M206,70 H215 V88 H206 Z M215,70 H224 V88 H215 Z M233,70 H242 V88 H233 Z M242,70 H251 V88 H242 Z M125,88 H134 V106 H125 Z M134,88 H143 V106 H134 Z M170,88 H179 V106 H170 Z M179,88 H188 V106 H179 Z M197,88 H206 V106 H197 Z M206,88 H215 V106 H206 Z M242,88 H251 V106 H242 Z M251,88 H260 V106 H251 Z"/>
  <path fill="#3fb950" transform="translate(143,31) scale(0.01607143,-0.01607143)" d="M325 -190V414H0V504H414V-190ZM146 -190V235H0V325H235V-190Z"/>
  <path fill="#3fb950" transform="translate(188,31) scale(0.01607143,-0.01607143)" d="M325 -190V414H0V504H414V-190ZM146 -190V235H0V325H235V-190Z"/>
  <path fill="#3fb950" transform="translate(215,31) scale(0.01607143,-0.01607143)" d="M325 -190V414H0V504H414V-190ZM146 -190V235H0V325H235V-190Z"/>
  <path fill="#3fb950" transform="translate(260,31) scale(0.01607143,-0.01607143)" d="M325 -190V414H0V504H414V-190ZM146 -190V235H0V325H235V-190Z"/>
  <path fill="#3fb950" transform="translate(143,49) scale(0.01607143,-0.01607143)" d="M325 -190V930H414V-190ZM146 -190V930H235V-190Z"/>
  <path fill="#3fb950" transform="translate(179,49) scale(0.01607143,-0.01607143)" d="M146 -190V504H560V414H235V-190ZM325 -190V325H560V235H414V-190Z"/>
  <path fill="#3fb950" transform="translate(188,49) scale(0.01607143,-0.01607143)" d="M0 235V325H325V930H414V235ZM0 414V504H146V930H235V414Z"/>
  <path fill="#3fb950" transform="translate(197,49) scale(0.01607143,-0.01607143)" d="M146 235V930H235V325H560V235ZM325 414V930H414V504H560V414Z"/>
  <path fill="#3fb950" transform="translate(224,49) scale(0.01607143,-0.01607143)" d="M325 -190V414H0V504H414V-190ZM146 -190V235H0V325H235V-190Z"/>
  <path fill="#3fb950" transform="translate(251,49) scale(0.01607143,-0.01607143)" d="M146 -190V504H560V414H235V-190ZM325 -190V325H560V235H414V-190Z"/>
  <path fill="#3fb950" transform="translate(260,49) scale(0.01607143,-0.01607143)" d="M0 235V325H325V930H414V235ZM0 414V504H146V930H235V414Z"/>
  <path fill="#3fb950" transform="translate(170,67) scale(0.01607143,-0.01607143)" d="M146 -190V504H560V414H235V-190ZM325 -190V325H560V235H414V-190Z"/>
  <path fill="#3fb950" transform="translate(179,67) scale(0.01607143,-0.01607143)" d="M0 235V325H325V930H414V235ZM0 414V504H146V930H235V414Z"/>
  <path fill="#3fb950" transform="translate(206,67) scale(0.01607143,-0.01607143)" d="M146 235V930H235V325H560V235ZM325 414V930H414V504H560V414Z"/>
  <path fill="#3fb950" transform="translate(242,67) scale(0.01607143,-0.01607143)" d="M146 -190V504H560V414H235V-190ZM325 -190V325H560V235H414V-190Z"/>
  <path fill="#3fb950" transform="translate(251,67) scale(0.01607143,-0.01607143)" d="M0 235V325H325V930H414V235ZM0 414V504H146V930H235V414Z"/>
  <path fill="#3fb950" transform="translate(143,85) scale(0.01607143,-0.01607143)" d="M146 -190V504H560V414H235V-190ZM325 -190V325H560V235H414V-190Z"/>
  <path fill="#3fb950" transform="translate(152,85) scale(0.01607143,-0.01607143)" d="M0 414V504H560V414ZM0 235V325H560V235Z"/>
  <path fill="#3fb950" transform="translate(179,85) scale(0.01607143,-0.01607143)" d="M325 -190V414H0V504H414V-190ZM146 -190V235H0V325H235V-190Z"/>
  <path fill="#3fb950" transform="translate(224,85) scale(0.01607143,-0.01607143)" d="M146 -190V504H560V414H235V-190ZM325 -190V325H560V235H414V-190Z"/>
  <path fill="#3fb950" transform="translate(251,85) scale(0.01607143,-0.01607143)" d="M325 -190V414H0V504H414V-190ZM146 -190V235H0V325H235V-190Z"/>
  <path fill="#3fb950" transform="translate(143,103) scale(0.01607143,-0.01607143)" d="M325 -190V930H414V-190ZM146 -190V930H235V-190Z"/>
  <path fill="#3fb950" transform="translate(188,103) scale(0.01607143,-0.01607143)" d="M325 -190V414H0V504H414V-190ZM146 -190V235H0V325H235V-190Z"/>
  <path fill="#3fb950" transform="translate(215,103) scale(0.01607143,-0.01607143)" d="M146 -190V504H560V414H235V-190ZM325 -190V325H560V235H414V-190Z"/>
  <path fill="#3fb950" transform="translate(224,103) scale(0.01607143,-0.01607143)" d="M0 235V325H325V930H414V235ZM0 414V504H146V930H235V414Z"/>
  <path fill="#3fb950" transform="translate(260,103) scale(0.01607143,-0.01607143)" d="M325 -190V414H0V504H414V-190ZM146 -190V235H0V325H235V-190Z"/>
  <path fill="#3fb950" transform="translate(125,121) scale(0.01607143,-0.01607143)" d="M146 235V930H235V325H560V235ZM325 414V930H414V504H560V414Z"/>
  <path fill="#3fb950" transform="translate(134,121) scale(0.01607143,-0.01607143)" d="M0 414V504H560V414ZM0 235V325H560V235Z"/>
  <path fill="#3fb950" transform="translate(143,121) scale(0.01607143,-0.01607143)" d="M0 235V325H325V930H414V235ZM0 414V504H146V930H235V414Z"/>
  <path fill="#3fb950" transform="translate(170,121) scale(0.01607143,-0.01607143)" d="M146 235V930H235V325H560V235ZM325 414V930H414V504H560V414Z"/>
  <path fill="#3fb950" transform="translate(179,121) scale(0.01607143,-0.01607143)" d="M0 414V504H560V414ZM0 235V325H560V235Z"/>
  <path fill="#3fb950" transform="translate(188,121) scale(0.01607143,-0.01607143)" d="M0 235V325H325V930H414V235ZM0 414V504H146V930H235V414Z"/>
  <path fill="#3fb950" transform="translate(197,121) scale(0.01607143,-0.01607143)" d="M146 235V930H235V325H560V235ZM325 414V930H414V504H560V414Z"/>
  <path fill="#3fb950" transform="translate(206,121) scale(0.01607143,-0.01607143)" d="M0 414V504H560V414ZM0 235V325H560V235Z"/>
  <path fill="#3fb950" transform="translate(215,121) scale(0.01607143,-0.01607143)" d="M0 235V325H325V930H414V235ZM0 414V504H146V930H235V414Z"/>
  <path fill="#3fb950" transform="translate(242,121) scale(0.01607143,-0.01607143)" d="M146 235V930H235V325H560V235ZM325 414V930H414V504H560V414Z"/>
  <path fill="#3fb950" transform="translate(251,121) scale(0.01607143,-0.01607143)" d="M0 414V504H560V414ZM0 235V325H560V235Z"/>
  <path fill="#3fb950" transform="translate(260,121) scale(0.01607143,-0.01607143)" d="M0 235V325H325V930H414V235ZM0 414V504H146V930H235V414Z"/>
  <text font-family="'Segoe UI', system-ui, -apple-system, sans-serif" font-size="22" font-weight="bold" fill="#e6edf3" x="297" y="57.0">kubectl, indexed.</text>
  <text font-family="'Segoe UI', system-ui, -apple-system, sans-serif" font-size="13" fill="#7d8590" x="297" y="81.0">Index-based resource selection for kubectl.</text>
  <text font-family="'Segoe UI', system-ui, -apple-system, sans-serif" font-size="13" fill="#7d8590" x="297" y="99.0">Run kx get pods, then use a number for every command after.</text>
</svg>