<svg xmlns="http://www.w3.org/2000/svg" width="800" height="142" viewBox="0 0 800 142">
  <rect width="800" height="142" fill="#0d1117"/>
  <rect y="140" width="800" height="2" fill="#21262d"/>
  <path fill="#3fb950" d="M24,16 H33 V34 H24 Z M33,16 H42 V34 H33 Z M69,16 H78 V34 H69 Z M78,16 H87 V34 H78 Z M96,16 H105 V34 H96 Z M105,16 H114 V34 H105 Z M141,16 H150 V34 H141 Z M150,16 H159 V34 H150 Z M24,34 H33 V52 H24 Z M33,34 H42 V52 H33 Z M60,34 H69 V52 H60 Z M69,34 H78 V52 H69 Z M105,34 H114 V52 H105 Z M114,34 H123 V52 H114 Z M132,34 H141 V52 H132 Z M141,34 H150 V52 H141 Z M24,52 H33 V70 H24 Z M33,52 H42 V70 H33 Z M42,52 H51 V70 H42 Z M51,52 H60 V70 H51 Z M60,52 H69 V70 H60 Z M114,52 H123 V70 H114 Z M123,52 H132 V70 H123 Z M132,52 H141 V70 H132 Z M24,70 H33 V88 H24 Z M33,70 H42 V88 H33 Z M60,70 H69 V88 H60 Z M69,70 H78 V88 H69 Z M105,70 H114 V88 H105 Z M114,70 H123 V88 H114 Z M132,70 H141 V88 H132 Z M141,70 H150 V88 H141 Z M24,88 H33 V106 H24 Z M33,88 H42 V106 H33 Z M69,88 H78 V106 H69 Z M78,88 H87 V106 H78 Z M96,88 H105 V106 H96 Z M105,88 H114 V106 H105 Z M141,88 H150 V106 H141 Z M150,88 H159 V106 H150 Z"/>
  <path fill="#3fb950" transform="translate(42,31) scale(0.01607143,-0.01607143)" d="M325 -190V414H0V504H414V-190ZM146 -190V235H0V325H235V-190Z"/>
  <path fill="#3fb950" transform="translate(87,31) scale(0.01607143,-0.01607143)" d="M325 -190V414H0V504H414V-190ZM146 -190V235H0V325H235V-190Z"/>
  <path fill="#3fb950" transform="translate(114,31) scale(0.01607143,-0.01607143)" d="M325 -190V414H0V504H414V-190ZM146 -190V235H0V325H235V-190Z"/>
  <path fill="#3fb950" transform="translate(159,31) scale(0.01607143,-0.01607143)" d="M325 -190V414H0V504H414V-190ZM146 -190V235H0V325H235V-190Z"/>
  <path fill="#3fb950" transform="translate(42,49) scale(0.01607143,-0.01607143)" d="M325 -190V930H414V-190ZM146 -190V930H235V-190Z"/>
  <path fill="#3fb950" transform="translate(78,49) scale(0.01607143,-0.01607143)" d="M146 -190V504H560V414H235V-190ZM325 -190V325H560V235H414V-190Z"/>
  <path fill="#3fb950" transform="translate(87,49) scale(0.01607143,-0.01607143)" d="M0 235V325H325V930H414V235ZM0 414V504H146V930H235V414Z"/>
  <path fill="#3fb950" transform="translate(96,49) scale(0.01607143,-0.01607143)" d="M146 235V930H235V325H560V235ZM325 414V930H414V504H560V414Z"/>
  <path fill="#3fb950" transform="translate(123,49) scale(0.01607143,-0.01607143)" d="M325 -190V414H0V504H414V-190ZM146 -190V235H0V325H235V-190Z"/>
  <path fill="#3fb950" transform="translate(150,49) scale(0.01607143,-0.01607143)" d="M146 -190V504H560V414H235V-190ZM325 -190V325H560V235H414V-190Z"/>
  <path fill="#3fb950" transform="translate(159,49) scale(0.01607143,-0.01607143)" d="M0 235V325H325V930H414V235ZM0 414V504H146V930H235V414Z"/>
  <path fill="#3fb950" transform="translate(69,67) scale(0.01607143,-0.01607143)" d="M146 -190V504H560V414H235V-190ZM325 -190V325H560V235H414V-190Z"/>
  <path fill="#3fb950" transform="translate(78,67) scale(0.01607143,-0.01607143)" d="M0 235V325H325V930H414V235ZM0 414V504H146V930H235V414Z"/>
  <path fill="#3fb950" transform="translate(105,67) scale(0.01607143,-0.01607143)" d="M146 235V930H235V325H560V235ZM325 414V930H414V504H560V414Z"/>
  <path fill="#3fb950" transform="translate(141,67) scale(0.01607143,-0.01607143)" d="M146 -190V504H560V414H235V-190ZM325 -190V325H560V235H414V-190Z"/>
  <path fill="#3fb950" transform="translate(150,67) scale(0.01607143,-0.01607143)" d="M0 235V325H325V930H414V235ZM0 414V504H146V930H235V414Z"/>
  <path fill="#3fb950" transform="translate(42,85) scale(0.01607143,-0.01607143)" d="M146 -190V504H560V414H235V-190ZM325 -190V325H560V235H414V-190Z"/>
  <path fill="#3fb950" transform="translate(51,85) scale(0.01607143,-0.01607143)" d="M0 414V504H560V414ZM0 235V325H560V235Z"/>
  <path fill="#3fb950" transform="translate(78,85) scale(0.01607143,-0.01607143)" d="M325 -190V414H0V504H414V-190ZM146 -190V235H0V325H235V-190Z"/>
  <path fill="#3fb950" transform="translate(123,85) scale(0.01607143,-0.01607143)" d="M146 -190V504H560V414H235V-190ZM325 -190V325H560V235H414V-190Z"/>
  <path fill="#3fb950" transform="translate(150,85) scale(0.01607143,-0.01607143)" d="M325 -190V414H0V504H414V-190ZM146 -190V235H0V325H235V-190Z"/>
  <path fill="#3fb950" transform="translate(42,103) scale(0.01607143,-0.01607143)" d="M325 -190V930H414V-190ZM146 -190V930H235V-190Z"/>
  <path fill="#3fb950" transform="translate(87,103) scale(0.01607143,-0.01607143)" d="M325 -190V414H0V504H414V-190ZM146 -190V235H0V325H235V-190Z"/>
  <path fill="#3fb950" transform="translate(114,103) scale(0.01607143,-0.01607143)" d="M146 -190V504H560V414H235V-190ZM325 -190V325H560V235H414V-190Z"/>
  <path fill="#3fb950" transform="translate(123,103) scale(0.01607143,-0.01607143)" d="M0 235V325H325V930H414V235ZM0 414V504H146V930H235V414Z"/>
  <path fill="#3fb950" transform="translate(159,103) scale(0.01607143,-0.01607143)" d="M325 -190V414H0V504H414V-190ZM146 -190V235H0V325H235V-190Z"/>
  <path fill="#3fb950" transform="translate(24,121) scale(0.01607143,-0.01607143)" d="M146 235V930H235V325H560V235ZM325 414V930H414V504H560V414Z"/>
  <path fill="#3fb950" transform="translate(33,121) scale(0.01607143,-0.01607143)" d="M0 414V504H560V414ZM0 235V325H560V235Z"/>
  <path fill="#3fb950" transform="translate(42,121) scale(0.01607143,-0.01607143)" d="M0 235V325H325V930H414V235ZM0 414V504H146V930H235V414Z"/>
  <path fill="#3fb950" transform="translate(69,121) scale(0.01607143,-0.01607143)" d="M146 235V930H235V325H560V235ZM325 414V930H414V504H560V414Z"/>
  <path fill="#3fb950" transform="translate(78,121) scale(0.01607143,-0.01607143)" d="M0 414V504H560V414ZM0 235V325H560V235Z"/>
  <path fill="#3fb950" transform="translate(87,121) scale(0.01607143,-0.01607143)" d="M0 235V325H325V930H414V235ZM0 414V504H146V930H235V414Z"/>
  <path fill="#3fb950" transform="translate(96,121) scale(0.01607143,-0.01607143)" d="M146 235V930H235V325H560V235ZM325 414V930H414V504H560V414Z"/>
  <path fill="#3fb950" transform="translate(105,121) scale(0.01607143,-0.01607143)" d="M0 414V504H560V414ZM0 235V325H560V235Z"/>
  <path fill="#3fb950" transform="translate(114,121) scale(0.01607143,-0.01607143)" d="M0 235V325H325V930H414V235ZM0 414V504H146V930H235V414Z"/>
  <path fill="#3fb950" transform="translate(141,121) scale(0.01607143,-0.01607143)" d="M146 235V930H235V325H560V235ZM325 414V930H414V504H560V414Z"/>
  <path fill="#3fb950" transform="translate(150,121) scale(0.01607143,-0.01607143)" d="M0 414V504H560V414ZM0 235V325H560V235Z"/>
  <path fill="#3fb950" transform="translate(159,121) scale(0.01607143,-0.01607143)" d="M0 235V325H325V930H414V235ZM0 414V504H146V930H235V414Z"/>
  <text font-family="'Segoe UI', system-ui, -apple-system, sans-serif" font-size="22" font-weight="bold" fill="#e6edf3" x="200" y="57.0">kubectl, indexed.</text>
  <text font-family="'Segoe UI', system-ui, -apple-system, sans-serif" font-size="13" fill="#7d8590" x="200" y="81.0">Index-based resource selection for kubectl.</text>
  <text font-family="'Segoe UI', system-ui, -apple-system, sans-serif" font-size="13" fill="#7d8590" x="200" y="99.0">Run kx get pods, then use a number for every command after.</text>
</svg>